<?xml version="1.0" encoding="UTF-8"?>
<svg version="1.0" xmlns="http://www.w3.org/2000/svg"
 width="200.000000pt" height="200.000000pt" viewBox="0 0 200.000000 200.000000"
 preserveAspectRatio="xMidYMid meet">

<g transform="translate(0.000000,200.000000) scale(0.100000,-0.100000)"
fill="#000000" stroke="none">
<path d="M89 1894 c-24 -25 -24 -28 -24 -221 l0 -195 28 -24 c27 -23 33 -24
188 -24 l161 0 29 29 29 29 0 192 c0 255 13 240 -218 240 -168 0 -169 0 -193
-26z m362 -31 c13 -16 12 -17 -2 -5 -12 9 -58 12 -175 10 l-159 -3 -5 -155 -6
-155 -2 151 c-1 106 2 154 10 162 8 8 60 12 169 12 137 0 158 -2 170 -17z
m-83 -30 l53 -6 -3 -146 -3 -146 -135 0 -135 0 -3 140 c-1 76 0 145 2 152 6
14 129 18 224 6z"/>
<path d="M253 1633 c-7 -18 5 -33 26 -33 21 0 47 27 37 37 -11 12 -58 9 -63
-4z"/>
<path d="M976 1894 c-15 -9 -37 -14 -47 -11 -36 10 -89 -13 -109 -46 -11 -18
-20 -40 -20 -49 0 -10 -4 -18 -10 -18 -15 0 -40 -56 -40 -91 0 -22 10 -41 34
-65 l34 -34 160 0 160 0 31 35 c38 44 40 79 6 129 -14 20 -25 44 -25 52 0 9
-7 31 -16 50 -28 59 -98 80 -158 48z m114 -51 c12 -16 20 -38 18 -54 -2 -19 5
-35 25 -53 31 -29 36 -70 10 -98 -14 -16 -34 -18 -168 -18 -138 0 -153 2 -170
20 -25 28 -22 67 9 99 14 15 26 37 26 49 0 43 62 76 99 53 10 -7 23 -3 39 10
37 28 86 25 112 -8z"/>
<path d="M902 1704 c4 -21 22 -23 26 -1 2 10 -3 17 -13 17 -10 0 -15 -6 -13
-16z"/>
<path d="M1022 1704 c4 -21 22 -23 26 -1 2 10 -3 17 -13 17 -10 0 -15 -6 -13
-16z"/>
<path d="M945 1679 c-10 -15 5 -29 31 -29 13 0 24 5 24 10 0 6 1 13 3 17 3 11
-52 13 -58 2z"/>
<path d="M1439 1831 c-23 -19 -24 -25 -24 -154 0 -175 1 -177 127 -177 70 0
88 -3 88 -14 0 -9 -12 -16 -32 -18 -21 -2 -33 -8 -33 -18 0 -12 18 -15 100
-15 82 0 100 3 100 15 0 10 -12 16 -32 18 -21 2 -33 9 -33 18 0 11 18 14 88
14 123 0 122 -2 122 178 0 134 -1 142 -22 156 -19 13 -58 16 -224 16 -184 0
-204 -2 -225 -19z m431 -156 l0 -135 -207 2 -208 3 -3 119 c-1 66 0 126 2 133
4 10 51 13 211 13 l205 0 0 -135z"/>
<path d="M1576 1704 c-9 -22 17 -49 39 -40 10 3 15 15 13 28 -4 29 -42 37 -52
12z"/>
<path d="M1700 1705 c-10 -12 -10 -18 0 -30 7 -8 18 -15 25 -15 7 0 18 7 25
15 10 12 10 18 0 30 -7 8 -18 15 -25 15 -7 0 -18 -7 -25 -15z"/>
<path d="M1632 1631 c5 -22 62 -21 66 1 2 13 -5 16 -33 15 -27 -1 -35 -5 -33
-16z"/>
<path d="M828 1411 c-25 -16 -49 -39 -53 -50 -5 -17 -15 -21 -53 -21 -29 0
-59 -8 -79 -20 -53 -32 -63 -64 -63 -199 0 -76 -4 -122 -11 -127 -21 -13 -69
-129 -69 -167 0 -51 47 -102 86 -93 17 5 33 0 51 -14 14 -11 34 -20 44 -20 14
0 19 -7 19 -27 0 -121 94 -184 171 -115 25 22 32 38 37 82 l7 55 73 3 72 3 0
-36 c0 -77 45 -135 105 -135 60 0 105 58 105 135 0 27 4 35 19 35 10 0 30 9
45 21 16 13 33 18 45 14 24 -7 76 18 85 40 19 50 -8 160 -51 207 -12 13 -15
39 -14 115 1 122 -9 168 -48 207 -31 30 -34 31 -142 34 l-111 4 -29 33 c-63
72 -161 86 -241 36z m171 -25 c15 -8 33 -22 40 -30 12 -14 1 -16 -109 -16
l-123 0 19 21 c10 12 28 25 39 30 32 13 104 10 134 -5z m290 -87 c63 -22 67
-39 61 -288 l-5 -223 -28 -24 -28 -24 -302 0 c-336 0 -335 0 -363 66 -18 42
-20 384 -3 433 7 18 26 41 43 52 29 17 53 19 312 19 183 0 292 -4 313 -11z
m126 -395 c8 -20 15 -46 14 -58 0 -20 -12 5 -33 72 -12 35 2 25 19 -14z m-855
-49 c-16 -61 -18 -65 -19 -32 -1 35 24 115 33 106 2 -2 -4 -35 -14 -74z m204
-171 c3 -9 6 -34 6 -57 -1 -39 -2 -41 -15 -23 -8 11 -15 37 -15 58 0 39 13 51
24 22z m360 -6 c3 -13 6 -41 6 -63 -1 -37 -2 -39 -15 -21 -8 11 -15 39 -15 63
0 46 14 58 24 21z"/>
<path d="M802 1107 c-13 -14 -22 -36 -22 -54 0 -73 80 -104 127 -49 30 35 29
71 -2 101 -31 32 -74 33 -103 2z m51 -23 c9 -10 -4 -34 -18 -34 -17 0 -28 17
-20 30 7 11 28 13 38 4z m37 -64 c0 -5 -4 -10 -10 -10 -5 0 -10 5 -10 10 0 6
5 10 10 10 6 0 10 -4 10 -10z"/>
<path d="M1072 1107 c-28 -30 -29 -80 -2 -107 33 -33 75 -30 108 6 29 33 28
69 -3 99 -31 32 -74 33 -103 2z m48 -37 c0 -13 -7 -20 -20 -20 -13 0 -20 7
-20 20 0 13 7 20 20 20 13 0 20 -7 20 -20z m35 -50 c-3 -5 -10 -10 -16 -10 -5
0 -9 5 -9 10 0 6 7 10 16 10 8 0 12 -4 9 -10z"/>
<path d="M933 994 c-3 -8 -1 -26 5 -40 9 -18 19 -24 45 -24 40 0 57 15 57 52
0 36 -27 38 -40 3 -5 -14 -12 -25 -15 -25 -3 0 -10 11 -15 25 -11 28 -28 33
-37 9z"/>
<path d="M964 815 c-8 -19 12 -36 33 -28 19 7 12 37 -10 41 -9 2 -20 -4 -23
-13z"/>
<path d="M152 1258 c-7 -7 -12 -22 -12 -35 0 -13 -4 -23 -9 -23 -5 0 -17 -7
-25 -16 -13 -13 -16 -46 -16 -200 0 -182 0 -185 24 -207 13 -12 26 -34 28 -47
3 -24 7 -25 81 -28 81 -3 107 6 107 36 0 8 11 25 25 38 25 23 25 24 25 208 0
154 -3 187 -16 200 -8 9 -20 16 -25 16 -5 0 -9 10 -9 23 0 13 -5 28 -12 35
-16 16 -150 16 -166 0z m138 -38 c0 -5 -25 -10 -55 -10 -30 0 -55 5 -55 10 0
6 25 10 55 10 30 0 55 -4 55 -10z m54 -66 c9 -24 7 -327 -2 -342 -6 -9 -36
-12 -113 -10 l-104 3 -3 160 c-1 88 0 170 3 183 5 21 10 22 109 22 85 0 105
-3 110 -16z"/>
<path d="M215 1140 c-4 -7 -3 -16 3 -22 14 -14 45 -2 40 15 -6 16 -34 21 -43
7z"/>
<path d="M205 1078 c-27 -15 -35 -28 -35 -59 0 -55 83 -82 114 -37 23 33 19
64 -10 87 -30 24 -41 25 -69 9z m60 -46 c9 -23 -21 -49 -42 -36 -24 15 -26 29
-8 47 18 18 40 13 50 -11z"/>
<path d="M205 911 c-7 -13 17 -24 40 -19 9 1 16 8 16 13 0 14 -48 19 -56 6z"/>
<path d="M215 850 c-4 -7 -3 -16 3 -22 14 -14 45 -2 40 15 -6 16 -34 21 -43 7z"/>
<path d="M1677 1244 c-4 -4 -7 -26 -7 -50 0 -35 -4 -43 -23 -48 -37 -9 -47
-46 -47 -182 0 -119 1 -126 25 -149 13 -14 29 -25 35 -25 5 0 10 -15 10 -34 0
-49 16 -57 107 -54 l78 3 3 41 c2 33 8 44 28 53 15 7 27 22 31 41 3 17 14 35
24 41 25 13 24 54 -1 72 l-21 14 21 6 c28 7 28 62 0 77 -13 7 -20 21 -20 40 0
19 -9 35 -27 50 -20 16 -29 33 -33 63 l-5 42 -85 3 c-47 1 -89 0 -93 -4z m201
-136 c18 -18 16 -252 -2 -267 -9 -8 -51 -11 -122 -9 l-109 3 -3 129 c-1 72 0
136 2 143 7 18 217 18 234 1z"/>
<path d="M1690 974 c0 -9 7 -14 17 -12 25 5 28 28 4 28 -12 0 -21 -6 -21 -16z"/>
<path d="M1810 975 c0 -10 7 -15 18 -13 21 4 19 22 -2 26 -10 2 -16 -3 -16
-13z"/>
<path d="M1735 940 c-10 -16 15 -41 39 -38 13 2 22 12 24 26 3 23 -12 30 -23
12 -5 -8 -11 -8 -20 0 -10 8 -15 8 -20 0z"/>
<path d="M1493 535 c-17 -7 -36 -22 -42 -34 -6 -11 -11 -72 -11 -135 0 -96 -3
-116 -15 -116 -35 0 -55 -38 -55 -103 0 -54 -3 -64 -21 -72 -56 -26 -15 -30
299 -33 305 -2 323 -1 320 15 -2 11 -15 20 -35 23 -26 4 -31 8 -23 20 5 8 10
95 10 193 0 200 -7 227 -61 246 -47 16 -326 14 -366 -4z m363 -33 c19 -12 34
-50 28 -66 -5 -14 -34 -16 -210 -16 l-204 0 0 25 c0 14 9 34 20 45 18 18 33
20 188 20 92 0 172 -4 178 -8z m-346 -126 c0 -2 -7 -9 -15 -16 -12 -10 -15
-10 -15 4 0 9 7 16 15 16 8 0 15 -2 15 -4z m325 -121 l0 -80 -157 -3 -158 -3
0 86 0 86 158 -3 157 -3 0 -80z m-395 -94 c0 -27 3 -56 6 -65 4 -12 0 -16 -15
-16 -19 0 -21 6 -21 58 0 32 3 62 7 65 16 17 23 4 23 -42z m251 -31 c98 0 179
-3 179 -7 0 -3 -7 -15 -17 -25 -14 -16 -34 -18 -179 -18 -177 0 -194 5 -194
56 0 23 1 24 16 10 13 -13 45 -16 195 -16z"/>
<path d="M1600 265 c0 -8 7 -15 15 -15 8 0 15 7 15 15 0 8 -7 15 -15 15 -8 0
-15 -7 -15 -15z"/>
<path d="M1720 266 c0 -8 4 -17 9 -20 11 -7 33 18 24 27 -12 12 -33 7 -33 -7z"/>
<path d="M1650 235 c0 -21 27 -30 45 -15 23 19 18 30 -15 30 -20 0 -30 -5 -30
-15z"/>
<path d="M207 533 c-15 -14 -7 -43 12 -43 10 0 24 -6 30 -14 18 -21 -6 -33
-76 -38 -60 -4 -65 -6 -113 -56 -54 -55 -63 -90 -35 -128 8 -10 15 -35 15 -55
0 -20 7 -42 15 -49 8 -7 15 -25 15 -41 0 -47 20 -78 59 -90 22 -6 108 -9 217
-7 162 3 184 5 203 22 14 13 21 31 21 56 0 24 7 43 20 55 12 11 20 31 20 50 0
18 7 49 15 69 19 45 11 82 -24 104 -14 9 -36 28 -48 42 -18 21 -33 26 -90 30
-53 4 -69 9 -71 22 -2 10 6 19 20 23 27 9 38 23 31 42 -8 21 -32 15 -65 -17
-18 -19 -40 -30 -57 -30 -17 0 -38 11 -56 30 -28 30 -45 36 -58 23z m243 -140
c-158 -7 -328 -7 -323 0 2 4 91 6 196 5 106 -1 163 -3 127 -5z m64 -49 c13 -5
16 -23 16 -95 l0 -89 -210 0 -210 0 0 83 c0 51 5 88 12 95 13 13 361 18 392 6z
m16 -248 c0 -22 -6 -36 -16 -40 -9 -3 -98 -6 -198 -6 -196 0 -206 2 -206 52
l0 28 210 0 210 0 0 -34z"/>
<path d="M234 275 c-8 -21 2 -45 19 -45 8 0 20 7 27 15 10 12 10 18 0 30 -7 8
-19 15 -27 15 -7 0 -16 -7 -19 -15z m31 -15 c3 -5 1 -10 -4 -10 -6 0 -11 5
-11 10 0 6 2 10 4 10 3 0 8 -4 11 -10z"/>
<path d="M364 276 c-9 -24 4 -48 23 -44 12 2 18 12 18 28 0 29 -32 41 -41 16z"/>
<path d="M293 227 c-8 -13 13 -29 33 -25 10 2 20 11 22 20 2 12 -4 16 -23 14
-15 0 -29 -5 -32 -9z"/>
<path d="M130 90 c0 -5 9 -10 20 -10 11 0 20 5 20 10 0 6 -9 10 -20 10 -11 0
-20 -4 -20 -10z"/>
<path d="M190 90 c0 -5 9 -10 20 -10 11 0 20 5 20 10 0 6 -9 10 -20 10 -11 0
-20 -4 -20 -10z"/>
<path d="M250 91 c0 -11 26 -22 34 -14 12 12 5 23 -14 23 -11 0 -20 -4 -20 -9z"/>
<path d="M313 88 c2 -7 10 -13 17 -13 7 0 15 6 18 13 2 7 -5 12 -18 12 -13 0
-20 -5 -17 -12z"/>
<path d="M373 88 c2 -7 10 -13 17 -13 7 0 15 6 18 13 2 7 -5 12 -18 12 -13 0
-20 -5 -17 -12z"/>
<path d="M430 92 c0 -14 11 -21 26 -15 21 8 17 23 -6 23 -11 0 -20 -4 -20 -8z"/>
<path d="M490 90 c0 -5 7 -10 16 -10 8 0 12 5 9 10 -3 6 -10 10 -16 10 -5 0
-9 -4 -9 -10z"/>
<path d="M940 435 c-24 -14 -62 -31 -87 -40 -7 -2 -22 -19 -33 -37 -17 -28
-20 -51 -20 -142 0 -92 3 -114 21 -142 38 -61 66 -74 167 -74 84 0 93 2 123
27 48 41 69 95 69 183 0 121 -25 176 -90 195 -14 4 -36 16 -49 26 -28 23 -67
24 -101 4z m85 -40 c29 -28 31 -42 9 -73 -18 -26 -75 -30 -93 -8 -21 25 -9 79
19 93 34 17 37 17 65 -12z m-135 -35 c0 -5 -8 -10 -17 -10 -15 0 -16 2 -3 10
19 12 20 12 20 0z m219 -4 c10 -12 8 -13 -8 -9 -12 3 -21 9 -21 14 0 14 16 11
29 -5z m-199 -50 c0 -2 3 -12 6 -21 6 -14 1 -15 -32 -9 -47 8 -56 13 -49 25 6
9 75 13 75 5z m220 -113 c0 -115 -40 -158 -144 -158 -53 0 -68 4 -99 28 -38
28 -57 74 -57 134 0 50 17 48 23 -2 14 -132 150 -185 226 -89 12 15 21 36 21
48 0 12 6 28 13 35 7 9 8 12 0 7 -7 -4 -9 1 -6 14 3 11 0 26 -6 33 -6 8 -7 18
-3 22 4 5 2 5 -5 1 -17 -9 -28 14 -12 25 28 17 49 -25 49 -98z m-93 45 c16
-14 23 -33 23 -57 0 -74 -85 -110 -129 -55 -62 79 34 180 106 112z"/>
</g>
</svg>
